<?xml version="1.0" encoding="utf-8"?>
<svg xmlns="http://www.w3.org/2000/svg" style="margin: auto; background: rgb(255, 255, 255); display: block; shape-rendering: auto;" width="281" height="71" preserveAspectRatio="xMidYMid">
<style type="text/css">
  text {
    text-anchor: middle; font-size: 23px; opacity: 0;
  }
</style>
<g style="transform-origin: 140.5px 35.5px; transform: scale(0.766667);">
<g transform="translate(140.5,35.5)">
  <g transform="translate(0,0)"><g class="path" style="transform: scale(1); transform-origin: -157.12px -3.18826px; animation: 1s linear -0.627s infinite normal forwards running beat-b9ae96a5-ac47-415a-b840-631c5882e13f;"><path d="M7.02-19.57L7.02 0L2.07 0L2.07-24.71L3.97-24.71L7.02-19.57" fill="#31395a" stroke="none" stroke-width="none" transform="translate(-161.66500854492188,9.166736358642583)" style="fill: rgb(49, 57, 90);"></path></g><g class="path" style="transform: scale(1); transform-origin: -142.085px 0.671737px; animation: 1s linear -0.594s infinite normal forwards running beat-b9ae96a5-ac47-415a-b840-631c5882e13f;"><path d="M29.02-8.50L29.02-8.50L29.02-8.50Q29.02-7.18 28.67-6.02L28.67-6.02L28.67-6.02Q28.32-4.86 27.69-3.88L27.69-3.88L27.69-3.88Q27.07-2.90 26.19-2.12L26.19-2.12L26.19-2.12Q25.31-1.33 24.27-0.79L24.27-0.79L24.27-0.79Q23.22-0.25 22.02 0.04L22.02 0.04L22.02 0.04Q20.83 0.34 19.57 0.34L19.57 0.34L19.57 0.34Q18.31 0.34 17.12 0.04L17.12 0.04L17.12 0.04Q15.94-0.25 14.89-0.79L14.89-0.79L14.89-0.79Q13.84-1.33 12.96-2.12L12.96-2.12L12.96-2.12Q12.08-2.90 11.46-3.88L11.46-3.88L11.46-3.88Q10.84-4.86 10.49-6.03L10.49-6.03L10.49-6.03Q10.14-7.19 10.14-8.50L10.14-8.50L10.14-8.50Q10.14-9.80 10.49-10.96L10.49-10.96L10.49-10.96Q10.84-12.13 11.46-13.11L11.46-13.11L11.46-13.11Q12.08-14.09 12.96-14.88L12.96-14.88L12.96-14.88Q13.84-15.66 14.89-16.20L14.89-16.20L14.89-16.20Q15.94-16.74 17.12-17.04L17.12-17.04L17.12-17.04Q18.31-17.33 19.57-17.33L19.57-17.33L19.57-17.33Q20.83-17.33 22.02-17.04L22.02-17.04L22.02-17.04Q23.22-16.74 24.27-16.20L24.27-16.20L24.27-16.20Q25.31-15.66 26.19-14.88L26.19-14.88L26.19-14.88Q27.07-14.09 27.69-13.11L27.69-13.11L27.69-13.11Q28.32-12.13 28.67-10.96L28.67-10.96L28.67-10.96Q29.02-9.80 29.02-8.50zM23.98-8.50L23.98-8.50L23.98-8.50Q23.98-9.20 23.90-9.98L23.90-9.98L23.90-9.98Q23.82-10.77 23.63-11.52L23.63-11.52L23.63-11.52Q23.44-12.28 23.11-12.97L23.11-12.97L23.11-12.97Q22.78-13.67 22.29-14.19L22.29-14.19L22.29-14.19Q21.81-14.71 21.14-15.02L21.14-15.02L21.14-15.02Q20.46-15.34 19.57-15.34L19.57-15.34L19.57-15.34Q18.72-15.34 18.06-15.01L18.06-15.01L18.06-15.01Q17.40-14.69 16.91-14.16L16.91-14.16L16.91-14.16Q16.42-13.62 16.09-12.92L16.09-12.92L16.09-12.92Q15.76-12.22 15.56-11.46L15.56-11.46L15.56-11.46Q15.35-10.71 15.26-9.94L15.26-9.94L15.26-9.94Q15.18-9.17 15.18-8.50L15.18-8.50L15.18-8.50Q15.18-7.82 15.26-7.05L15.26-7.05L15.26-7.05Q15.35-6.28 15.56-5.52L15.56-5.52L15.56-5.52Q15.76-4.76 16.09-4.06L16.09-4.06L16.09-4.06Q16.42-3.37 16.91-2.83L16.91-2.83L16.91-2.83Q17.40-2.30 18.06-1.98L18.06-1.98L18.06-1.98Q18.72-1.66 19.57-1.66L19.57-1.66L19.57-1.66Q20.45-1.66 21.12-1.97L21.12-1.97L21.12-1.97Q21.80-2.29 22.29-2.81L22.29-2.81L22.29-2.81Q22.78-3.34 23.10-4.03L23.10-4.03L23.10-4.03Q23.42-4.72 23.62-5.48L23.62-5.48L23.62-5.48Q23.82-6.24 23.90-7.02L23.90-7.02L23.90-7.02Q23.98-7.79 23.98-8.50" fill="#31395a" stroke="none" stroke-width="none" transform="translate(-161.66500854492188,9.166736358642583)" style="fill: rgb(29, 32, 49);"></path></g><g class="path" style="transform: scale(1); transform-origin: -121.485px 0.671737px; animation: 1s linear -0.561s infinite normal forwards running beat-b9ae96a5-ac47-415a-b840-631c5882e13f;"><path d="M49.17-16.92L49.17 0L44.22 0L44.22-2.02L44.22-2.02Q43.34-0.82 42.11-0.24L42.11-0.24L42.11-0.24Q40.87 0.34 39.39 0.34L39.39 0.34L39.39 0.34Q37.46 0.34 35.93-0.35L35.93-0.35L35.93-0.35Q34.41-1.04 33.35-2.23L33.35-2.23L33.35-2.23Q32.30-3.43 31.74-5.04L31.74-5.04L31.74-5.04Q31.19-6.65 31.19-8.50L31.19-8.50L31.19-8.50Q31.19-10.34 31.74-11.95L31.74-11.95L31.74-11.95Q32.30-13.56 33.35-14.76L33.35-14.76L33.35-14.76Q34.41-15.95 35.93-16.64L35.93-16.64L35.93-16.64Q37.46-17.33 39.39-17.33L39.39-17.33L39.39-17.33Q40.37-17.33 41.26-17.04L41.26-17.04L41.26-17.04Q42.14-16.74 42.88-16.21L42.88-16.21L42.88-16.21Q43.62-15.67 44.19-14.92L44.19-14.92L44.19-14.92Q44.75-14.17 45.07-13.24L45.07-13.24L47.27-16.92L49.17-16.92zM44.19-8.50L44.19-8.50L44.19-8.50Q44.19-9.16 44.13-9.89L44.13-9.89L44.13-9.89Q44.06-10.62 43.90-11.34L43.90-11.34L43.90-11.34Q43.74-12.06 43.45-12.71L43.45-12.71L43.45-12.71Q43.17-13.36 42.72-13.86L42.72-13.86L42.72-13.86Q42.28-14.37 41.65-14.66L41.65-14.66L41.65-14.66Q41.02-14.96 40.18-14.96L40.18-14.96L40.18-14.96Q39.35-14.96 38.73-14.66L38.73-14.66L38.73-14.66Q38.12-14.36 37.68-13.85L37.68-13.85L37.68-13.85Q37.24-13.34 36.95-12.69L36.95-12.69L36.95-12.69Q36.67-12.03 36.50-11.31L36.50-11.31L36.50-11.31Q36.34-10.59 36.28-9.87L36.28-9.87L36.28-9.87Q36.21-9.14 36.21-8.50L36.21-8.50L36.21-8.50Q36.21-7.85 36.28-7.12L36.28-7.12L36.28-7.12Q36.34-6.39 36.50-5.67L36.50-5.67L36.50-5.67Q36.67-4.95 36.95-4.29L36.95-4.29L36.95-4.29Q37.24-3.63 37.68-3.13L37.68-3.13L37.68-3.13Q38.12-2.62 38.73-2.32L38.73-2.32L38.73-2.32Q39.35-2.02 40.18-2.02L40.18-2.02L40.18-2.02Q40.94-2.02 41.54-2.34L41.54-2.34L41.54-2.34Q42.13-2.65 42.58-3.18L42.58-3.18L42.58-3.18Q43.02-3.71 43.33-4.38L43.33-4.38L43.33-4.38Q43.64-5.05 43.83-5.77L43.83-5.77L43.83-5.77Q44.02-6.49 44.11-7.20L44.11-7.20L44.11-7.20Q44.19-7.91 44.19-8.50" fill="#31395a" stroke="none" stroke-width="none" transform="translate(-161.66500854492188,9.166736358642583)" style="fill: rgb(92, 96, 126);"></path></g><g class="path" style="transform: scale(1); transform-origin: -100.3px -2.20326px; animation: 1s linear -0.528s infinite normal forwards running beat-b9ae96a5-ac47-415a-b840-631c5882e13f;"><path d="M70.36-23.14L70.36 0L68.45 0L66.25-3.68L66.25-3.68Q65.93-2.75 65.37-2.01L65.37-2.01L65.37-2.01Q64.80-1.26 64.06-0.73L64.06-0.73L64.06-0.73Q63.33-0.19 62.44 0.10L62.44 0.10L62.44 0.10Q61.55 0.40 60.57 0.40L60.57 0.40L60.57 0.40Q58.64 0.40 57.11-0.29L57.11-0.29L57.11-0.29Q55.59-0.98 54.54-2.18L54.54-2.18L54.54-2.18Q53.48-3.37 52.92-4.98L52.92-4.98L52.92-4.98Q52.37-6.59 52.37-8.44L52.37-8.44L52.37-8.44Q52.37-10.28 52.92-11.89L52.92-11.89L52.92-11.89Q53.48-13.51 54.54-14.69L54.54-14.69L54.54-14.69Q55.59-15.88 57.11-16.57L57.11-16.57L57.11-16.57Q58.64-17.26 60.57-17.26L60.57-17.26L60.57-17.26Q62.05-17.26 63.29-16.68L63.29-16.68L63.29-16.68Q64.53-16.11 65.41-14.90L65.41-14.90L65.41-23.14L70.36-23.14zM65.38-8.44L65.38-8.44L65.38-8.44Q65.38-9.02 65.29-9.73L65.29-9.73L65.29-9.73Q65.20-10.43 65.01-11.15L65.01-11.15L65.01-11.15Q64.82-11.87 64.51-12.54L64.51-12.54L64.51-12.54Q64.20-13.21 63.76-13.74L63.76-13.74L63.76-13.74Q63.31-14.27 62.72-14.58L62.72-14.58L62.72-14.58Q62.12-14.90 61.36-14.90L61.36-14.90L61.36-14.90Q60.53-14.90 59.91-14.60L59.91-14.60L59.91-14.60Q59.30-14.30 58.86-13.79L58.86-13.79L58.86-13.79Q58.42-13.29 58.13-12.63L58.13-12.63L58.13-12.63Q57.85-11.97 57.69-11.25L57.69-11.25L57.69-11.25Q57.52-10.53 57.46-9.81L57.46-9.81L57.46-9.81Q57.39-9.08 57.39-8.44L57.39-8.44L57.39-8.44Q57.39-7.79 57.46-7.07L57.46-7.07L57.46-7.07Q57.52-6.34 57.69-5.63L57.69-5.63L57.69-5.63Q57.85-4.91 58.13-4.24L58.13-4.24L58.13-4.24Q58.42-3.57 58.86-3.07L58.86-3.07L58.86-3.07Q59.30-2.56 59.91-2.26L59.91-2.26L59.91-2.26Q60.53-1.96 61.36-1.96L61.36-1.96L61.36-1.96Q62.20-1.96 62.83-2.26L62.83-2.26L62.83-2.26Q63.46-2.55 63.90-3.05L63.90-3.05L63.90-3.05Q64.35-3.56 64.64-4.21L64.64-4.21L64.64-4.21Q64.92-4.86 65.08-5.59L65.08-5.59L65.08-5.59Q65.24-6.31 65.31-7.05L65.31-7.05L65.31-7.05Q65.38-7.78 65.38-8.44" fill="#31395a" stroke="none" stroke-width="none" transform="translate(-161.66500854492188,9.166736358642583)" style="fill: rgb(168, 164, 185);"></path></g><g class="path" style="transform: scale(1); transform-origin: -84.68px -11.8333px; animation: 1s linear -0.495s infinite normal forwards running beat-b9ae96a5-ac47-415a-b840-631c5882e13f;"><path d="M79.69-21.01L79.69-21.01L79.69-21.01Q79.69-20.45 79.48-19.95L79.48-19.95L79.48-19.95Q79.26-19.45 78.90-19.09L78.90-19.09L78.90-19.09Q78.53-18.72 78.03-18.51L78.03-18.51L78.03-18.51Q77.53-18.30 76.98-18.30L76.98-18.30L76.98-18.30Q76.42-18.30 75.93-18.51L75.93-18.51L75.93-18.51Q75.44-18.72 75.07-19.09L75.07-19.09L75.07-19.09Q74.71-19.45 74.49-19.95L74.49-19.95L74.49-19.95Q74.28-20.45 74.28-21.01L74.28-21.01L74.28-21.01Q74.28-21.56 74.49-22.05L74.49-22.05L74.49-22.05Q74.71-22.54 75.07-22.91L75.07-22.91L75.07-22.91Q75.44-23.28 75.93-23.49L75.93-23.49L75.93-23.49Q76.42-23.70 76.98-23.70L76.98-23.70L76.98-23.70Q77.53-23.70 78.03-23.49L78.03-23.49L78.03-23.49Q78.53-23.28 78.90-22.91L78.90-22.91L78.90-22.91Q79.26-22.54 79.48-22.05L79.48-22.05L79.48-22.05Q79.69-21.56 79.69-21.01" fill="#31395a" stroke="none" stroke-width="none" transform="translate(-161.66500854492188,9.166736358642583)" style="fill: rgb(201, 197, 213);"></path></g><g class="path" style="transform: scale(1); transform-origin: -84.68px 0.716737px; animation: 1s linear -0.462s infinite normal forwards running beat-b9ae96a5-ac47-415a-b840-631c5882e13f;"><path d="M79.47-16.90L79.47 0L74.50 0L74.50-16.90L79.47-16.90" fill="#31395a" stroke="none" stroke-width="none" transform="translate(-161.66500854492188,9.166736358642583)" style="fill: rgb(12, 11, 13);"></path></g><g class="path" style="transform: scale(1); transform-origin: -69.405px 2.30174px; animation: 1s linear -0.429s infinite normal forwards running beat-b9ae96a5-ac47-415a-b840-631c5882e13f;"><path d="M100.91-9.70L100.91-9.70L100.91-9.70Q100.91-7.98 100.50-6.12L100.50-6.12L100.50-6.12Q100.08-4.26 99.33-2.48L99.33-2.48L99.33-2.48Q98.58-0.69 97.54 0.89L97.54 0.89L97.54 0.89Q96.50 2.46 95.26 3.60L95.26 3.60L93.40 2.59L93.40 2.59Q93.79 1.86 94.15 0.95L94.15 0.95L94.15 0.95Q94.50 0.04 94.78-0.97L94.78-0.97L94.78-0.97Q95.07-1.99 95.30-3.08L95.30-3.08L95.30-3.08Q95.52-4.16 95.68-5.22L95.68-5.22L95.68-5.22Q95.83-6.28 95.91-7.29L95.91-7.29L95.91-7.29Q95.99-8.29 95.99-9.16L95.99-9.16L95.99-9.16Q95.99-9.73 95.95-10.38L95.95-10.38L95.95-10.38Q95.90-11.03 95.76-11.68L95.76-11.68L95.76-11.68Q95.63-12.33 95.39-12.93L95.39-12.93L95.39-12.93Q95.16-13.54 94.77-13.99L94.77-13.99L94.77-13.99Q94.38-14.44 93.83-14.72L93.83-14.72L93.83-14.72Q93.28-15 92.53-15L92.53-15L92.53-15Q91.80-15 91.23-14.67L91.23-14.67L91.23-14.67Q90.66-14.34 90.22-13.81L90.22-13.81L90.22-13.81Q89.78-13.27 89.47-12.58L89.47-12.58L89.47-12.58Q89.15-11.89 88.95-11.17L88.95-11.17L88.95-11.17Q88.75-10.44 88.67-9.74L88.67-9.74L88.67-9.74Q88.58-9.04 88.58-8.48L88.58-8.48L88.58 0L83.61 0L83.61-16.92L85.52-16.92L87.79-12.98L87.79-12.98Q88.20-13.96 88.81-14.77L88.81-14.77L88.81-14.77Q89.43-15.57 90.21-16.14L90.21-16.14L90.21-16.14Q90.98-16.71 91.93-17.02L91.93-17.02L91.93-17.02Q92.87-17.33 93.97-17.33L93.97-17.33L93.97-17.33Q95.73-17.33 97.03-16.76L97.03-16.76L97.03-16.76Q98.33-16.19 99.20-15.17L99.20-15.17L99.20-15.17Q100.06-14.15 100.49-12.75L100.49-12.75L100.49-12.75Q100.91-11.35 100.91-9.70" fill="#31395a" stroke="none" stroke-width="none" transform="translate(-161.66500854492188,9.166736358642583)" style="fill: rgb(49, 57, 90);"></path></g><g class="path" style="transform: scale(1); transform-origin: -49.44px 4.40674px; animation: 1s linear -0.396s infinite normal forwards running beat-b9ae96a5-ac47-415a-b840-631c5882e13f;"><path d="M121.22-16.92L121.22-2.04L121.22-2.04Q121.22-0.01 120.62 1.77L120.62 1.77L120.62 1.77Q120.01 3.56 118.87 4.90L118.87 4.90L118.87 4.90Q117.73 6.24 116.07 7.02L116.07 7.02L116.07 7.02Q114.40 7.81 112.28 7.81L112.28 7.81L112.28 7.81Q111.11 7.81 109.91 7.54L109.91 7.54L109.91 7.54Q108.72 7.28 107.66 6.73L107.66 6.73L107.66 6.73Q106.60 6.18 105.75 5.34L105.75 5.34L105.75 5.34Q104.91 4.50 104.43 3.35L104.43 3.35L106.57 2.55L106.57 2.55Q106.85 3.27 107.29 3.87L107.29 3.87L107.29 3.87Q107.74 4.47 108.33 4.90L108.33 4.90L108.33 4.90Q108.91 5.33 109.61 5.57L109.61 5.57L109.61 5.57Q110.32 5.82 111.09 5.82L111.09 5.82L111.09 5.82Q112.56 5.82 113.55 5.21L113.55 5.21L113.55 5.21Q114.54 4.61 115.14 3.65L115.14 3.65L115.14 3.65Q115.74 2.68 116.00 1.46L116.00 1.46L116.00 1.46Q116.26 0.23 116.26-1.03L116.26-1.03L116.26-2.02L116.26-2.02Q115.39-0.82 114.15-0.24L114.15-0.24L114.15-0.24Q112.91 0.34 111.43 0.34L111.43 0.34L111.43 0.34Q109.50 0.34 107.97-0.35L107.97-0.35L107.97-0.35Q106.45-1.04 105.40-2.23L105.40-2.23L105.40-2.23Q104.34-3.43 103.78-5.04L103.78-5.04L103.78-5.04Q103.23-6.65 103.23-8.50L103.23-8.50L103.23-8.50Q103.23-10.34 103.78-11.95L103.78-11.95L103.78-11.95Q104.34-13.56 105.40-14.76L105.40-14.76L105.40-14.76Q106.45-15.95 107.97-16.64L107.97-16.64L107.97-16.64Q109.50-17.33 111.43-17.33L111.43-17.33L111.43-17.33Q112.41-17.33 113.30-17.04L113.30-17.04L113.30-17.04Q114.18-16.74 114.92-16.21L114.92-16.21L114.92-16.21Q115.66-15.67 116.23-14.92L116.23-14.92L116.23-14.92Q116.79-14.17 117.11-13.24L117.11-13.24L119.31-16.92L121.22-16.92zM116.24-8.50L116.24-8.50L116.24-8.50Q116.24-9.16 116.17-9.89L116.17-9.89L116.17-9.89Q116.10-10.62 115.94-11.34L115.94-11.34L115.94-11.34Q115.78-12.06 115.50-12.71L115.50-12.71L115.50-12.71Q115.21-13.36 114.76-13.86L114.76-13.86L114.76-13.86Q114.32-14.37 113.69-14.66L113.69-14.66L113.69-14.66Q113.06-14.96 112.22-14.96L112.22-14.96L112.22-14.96Q111.39-14.96 110.77-14.66L110.77-14.66L110.77-14.66Q110.16-14.36 109.72-13.85L109.72-13.85L109.72-13.85Q109.28-13.34 108.99-12.69L108.99-12.69L108.99-12.69Q108.71-12.03 108.54-11.31L108.54-11.31L108.54-11.31Q108.38-10.59 108.32-9.87L108.32-9.87L108.32-9.87Q108.25-9.14 108.25-8.50L108.25-8.50L108.25-8.50Q108.25-7.85 108.32-7.12L108.32-7.12L108.32-7.12Q108.38-6.39 108.54-5.67L108.54-5.67L108.54-5.67Q108.71-4.95 108.99-4.29L108.99-4.29L108.99-4.29Q109.28-3.63 109.72-3.13L109.72-3.13L109.72-3.13Q110.16-2.62 110.77-2.32L110.77-2.32L110.77-2.32Q111.39-2.02 112.22-2.02L112.22-2.02L112.22-2.02Q112.98-2.02 113.58-2.34L113.58-2.34L113.58-2.34Q114.17-2.65 114.62-3.18L114.62-3.18L114.62-3.18Q115.06-3.71 115.37-4.38L115.37-4.38L115.37-4.38Q115.68-5.05 115.87-5.77L115.87-5.77L115.87-5.77Q116.06-6.49 116.15-7.20L116.15-7.20L116.15-7.20Q116.24-7.91 116.24-8.50" fill="#31395a" stroke="none" stroke-width="none" transform="translate(-161.66500854492188,9.166736358642583)" style="fill: rgb(29, 32, 49);"></path></g><g class="path" style="transform: scale(1); transform-origin: -34.18px 8.16674px; animation: 1s linear -0.363s infinite normal forwards running beat-b9ae96a5-ac47-415a-b840-631c5882e13f;"><path d="M130.15-2.20L130.15-2.20L130.15-2.20Q130.15-1.52 129.98-0.82L129.98-0.82L129.98-0.82Q129.80-0.12 129.48 0.55L129.48 0.55L129.48 0.55Q129.17 1.22 128.75 1.81L128.75 1.81L128.75 1.81Q128.32 2.40 127.82 2.86L127.82 2.86L125.71 1.74L125.71 1.74Q126.02 1.51 126.34 1.13L126.34 1.13L126.34 1.13Q126.65 0.75 126.71 0.37L126.71 0.37L126.71 0.37Q126.28 0.23 125.94-0.01L125.94-0.01L125.94-0.01Q125.60-0.26 125.35-0.61L125.35-0.61L125.35-0.61Q125.10-0.95 124.96-1.35L124.96-1.35L124.96-1.35Q124.82-1.76 124.82-2.20L124.82-2.20L124.82-2.20Q124.82-2.74 125.03-3.23L125.03-3.23L125.03-3.23Q125.24-3.72 125.60-4.08L125.60-4.08L125.60-4.08Q125.96-4.44 126.45-4.65L126.45-4.65L126.45-4.65Q126.93-4.86 127.49-4.86L127.49-4.86L127.49-4.86Q128.04-4.86 128.53-4.65L128.53-4.65L128.53-4.65Q129.01-4.44 129.38-4.08L129.38-4.08L129.38-4.08Q129.74-3.72 129.95-3.23L129.95-3.23L129.95-3.23Q130.15-2.74 130.15-2.20" fill="#31395a" stroke="none" stroke-width="none" transform="translate(-161.66500854492188,9.166736358642583)" style="fill: rgb(92, 96, 126);"></path></g><g class="path" style="transform: scale(1); transform-origin: -10.36px 4.40674px; animation: 1s linear -0.33s infinite normal forwards running beat-b9ae96a5-ac47-415a-b840-631c5882e13f;"><path d="M160.30-8.50L160.30-8.50L160.30-8.50Q160.30-6.65 159.74-5.04L159.74-5.04L159.74-5.04Q159.18-3.43 158.13-2.23L158.13-2.23L158.13-2.23Q157.08-1.04 155.55-0.35L155.55-0.35L155.55-0.35Q154.03 0.34 152.09 0.34L152.09 0.34L152.09 0.34Q150.62 0.34 149.38-0.24L149.38-0.24L149.38-0.24Q148.14-0.82 147.26-2.02L147.26-2.02L147.26 7.81L142.31 7.81L142.31-16.92L144.21-16.92L146.41-13.24L146.41-13.24Q146.73-14.17 147.30-14.92L147.30-14.92L147.30-14.92Q147.86-15.67 148.60-16.21L148.60-16.21L148.60-16.21Q149.34-16.74 150.23-17.04L150.23-17.04L150.23-17.04Q151.11-17.33 152.09-17.33L152.09-17.33L152.09-17.33Q154.03-17.33 155.55-16.64L155.55-16.64L155.55-16.64Q157.08-15.95 158.13-14.76L158.13-14.76L158.13-14.76Q159.18-13.56 159.74-11.95L159.74-11.95L159.74-11.95Q160.30-10.34 160.30-8.50zM155.27-8.50L155.27-8.50L155.27-8.50Q155.27-9.14 155.21-9.87L155.21-9.87L155.21-9.87Q155.14-10.59 154.98-11.31L154.98-11.31L154.98-11.31Q154.82-12.03 154.53-12.69L154.53-12.69L154.53-12.69Q154.25-13.34 153.81-13.85L153.81-13.85L153.81-13.85Q153.37-14.36 152.75-14.66L152.75-14.66L152.75-14.66Q152.12-14.96 151.30-14.96L151.30-14.96L151.30-14.96Q150.45-14.96 149.83-14.66L149.83-14.66L149.83-14.66Q149.21-14.37 148.76-13.86L148.76-13.86L148.76-13.86Q148.32-13.36 148.03-12.71L148.03-12.71L148.03-12.71Q147.74-12.06 147.58-11.34L147.58-11.34L147.58-11.34Q147.42-10.62 147.36-9.89L147.36-9.89L147.36-9.89Q147.29-9.16 147.29-8.50L147.29-8.50L147.29-8.50Q147.29-7.91 147.38-7.20L147.38-7.20L147.38-7.20Q147.47-6.49 147.66-5.77L147.66-5.77L147.66-5.77Q147.85-5.05 148.15-4.38L148.15-4.38L148.15-4.38Q148.46-3.71 148.91-3.18L148.91-3.18L148.91-3.18Q149.36-2.65 149.95-2.34L149.95-2.34L149.95-2.34Q150.54-2.02 151.30-2.02L151.30-2.02L151.30-2.02Q152.14-2.02 152.75-2.32L152.75-2.32L152.75-2.32Q153.37-2.62 153.81-3.13L153.81-3.13L153.81-3.13Q154.25-3.63 154.53-4.29L154.53-4.29L154.53-4.29Q154.82-4.95 154.98-5.67L154.98-5.67L154.98-5.67Q155.14-6.39 155.21-7.12L155.21-7.12L155.21-7.12Q155.27-7.85 155.27-8.50" fill="#31395a" stroke="none" stroke-width="none" transform="translate(-161.66500854492188,9.166736358642583)" style="fill: rgb(168, 164, 185);"></path></g><g class="path" style="transform: scale(1); transform-origin: 4.28999px -3.18826px; animation: 1s linear -0.297s infinite normal forwards running beat-b9ae96a5-ac47-415a-b840-631c5882e13f;"><path d="M168.43-19.57L168.43 0L163.48 0L163.48-24.71L165.38-24.71L168.43-19.57" fill="#31395a" stroke="none" stroke-width="none" transform="translate(-161.66500854492188,9.166736358642583)" style="fill: rgb(201, 197, 213);"></path></g><g class="path" style="transform: scale(1); transform-origin: 18.54px 0.671737px; animation: 1s linear -0.264s infinite normal forwards running beat-b9ae96a5-ac47-415a-b840-631c5882e13f;"><path d="M176.63-8.03L176.63-8.03L176.63-8.03Q177.54-7.82 178.45-7.71L178.45-7.71L178.45-7.71Q179.36-7.59 180.28-7.59L180.28-7.59L180.28-7.59Q181.25-7.59 182.07-7.77L182.07-7.77L182.07-7.77Q182.90-7.95 183.51-8.39L183.51-8.39L183.51-8.39Q184.12-8.82 184.47-9.54L184.47-9.54L184.47-9.54Q184.82-10.25 184.82-11.32L184.82-11.32L184.82-11.32Q184.82-12.19 184.58-12.91L184.58-12.91L184.58-12.91Q184.35-13.62 183.89-14.14L183.89-14.14L183.89-14.14Q183.43-14.65 182.75-14.93L182.75-14.93L182.75-14.93Q182.08-15.22 181.19-15.22L181.19-15.22L181.19-15.22Q180.35-15.22 179.69-14.91L179.69-14.91L179.69-14.91Q179.02-14.60 178.51-14.08L178.51-14.08L178.51-14.08Q178.01-13.56 177.65-12.88L177.65-12.88L177.65-12.88Q177.29-12.19 177.06-11.44L177.06-11.44L177.06-11.44Q176.82-10.69 176.72-9.93L176.72-9.93L176.72-9.93Q176.62-9.17 176.62-8.50L176.62-8.50L176.62-8.50Q176.62-8.38 176.62-8.26L176.62-8.26L176.62-8.26Q176.62-8.14 176.63-8.03zM188.83-11.37L188.83-11.37L188.83-11.37Q188.83-10.33 188.50-9.51L188.50-9.51L188.50-9.51Q188.16-8.70 187.58-8.09L187.58-8.09L187.58-8.09Q187.00-7.47 186.24-7.05L186.24-7.05L186.24-7.05Q185.48-6.62 184.61-6.35L184.61-6.35L184.61-6.35Q183.75-6.08 182.83-5.96L182.83-5.96L182.83-5.96Q181.92-5.84 181.05-5.84L181.05-5.84L181.05-5.84Q179.96-5.84 178.89-6.00L178.89-6.00L178.89-6.00Q177.82-6.15 176.78-6.49L176.78-6.49L176.78-6.49Q176.94-5.52 177.29-4.65L177.29-4.65L177.29-4.65Q177.64-3.78 178.23-3.13L178.23-3.13L178.23-3.13Q178.81-2.48 179.67-2.09L179.67-2.09L179.67-2.09Q180.53-1.71 181.70-1.71L181.70-1.71L181.70-1.71Q182.48-1.71 183.18-1.95L183.18-1.95L183.18-1.95Q183.88-2.18 184.47-2.61L184.47-2.61L184.47-2.61Q185.05-3.03 185.50-3.62L185.50-3.62L185.50-3.62Q185.95-4.20 186.23-4.92L186.23-4.92L188.36-4.13L188.36-4.13Q187.88-2.97 187.04-2.13L187.04-2.13L187.04-2.13Q186.20-1.29 185.13-0.74L185.13-0.74L185.13-0.74Q184.07-0.19 182.88 0.07L182.88 0.07L182.88 0.07Q181.68 0.34 180.51 0.34L180.51 0.34L180.51 0.34Q178.58 0.34 176.94-0.31L176.94-0.31L176.94-0.31Q175.30-0.97 174.11-2.14L174.11-2.14L174.11-2.14Q172.92-3.31 172.25-4.94L172.25-4.94L172.25-4.94Q171.58-6.56 171.58-8.50L171.58-8.50L171.58-8.50Q171.58-10.43 172.25-12.06L172.25-12.06L172.25-12.06Q172.92-13.68 174.11-14.85L174.11-14.85L174.11-14.85Q175.30-16.03 176.94-16.68L176.94-16.68L176.94-16.68Q178.58-17.33 180.51-17.33L180.51-17.33L180.51-17.33Q181.45-17.33 182.43-17.20L182.43-17.20L182.43-17.20Q183.41-17.07 184.34-16.78L184.34-16.78L184.34-16.78Q185.26-16.49 186.08-16.04L186.08-16.04L186.08-16.04Q186.90-15.59 187.51-14.92L187.51-14.92L187.51-14.92Q188.12-14.25 188.47-13.37L188.47-13.37L188.47-13.37Q188.83-12.50 188.83-11.37" fill="#31395a" stroke="none" stroke-width="none" transform="translate(-161.66500854492188,9.166736358642583)" style="fill: rgb(12, 11, 13);"></path></g><g class="path" style="transform: scale(1); transform-origin: 38.3px 0.671737px; animation: 1s linear -0.231s infinite normal forwards running beat-b9ae96a5-ac47-415a-b840-631c5882e13f;"><path d="M208.96-16.92L208.96 0L204.01 0L204.01-2.02L204.01-2.02Q203.13-0.82 201.89-0.24L201.89-0.24L201.89-0.24Q200.65 0.34 199.17 0.34L199.17 0.34L199.17 0.34Q197.24 0.34 195.72-0.35L195.72-0.35L195.72-0.35Q194.19-1.04 193.14-2.23L193.14-2.23L193.14-2.23Q192.08-3.43 191.53-5.04L191.53-5.04L191.53-5.04Q190.97-6.65 190.97-8.50L190.97-8.50L190.97-8.50Q190.97-10.34 191.53-11.95L191.53-11.95L191.53-11.95Q192.08-13.56 193.14-14.76L193.14-14.76L193.14-14.76Q194.19-15.95 195.72-16.64L195.72-16.64L195.72-16.64Q197.24-17.33 199.17-17.33L199.17-17.33L199.17-17.33Q200.16-17.33 201.04-17.04L201.04-17.04L201.04-17.04Q201.93-16.74 202.67-16.21L202.67-16.21L202.67-16.21Q203.41-15.67 203.97-14.92L203.97-14.92L203.97-14.92Q204.54-14.17 204.86-13.24L204.86-13.24L207.06-16.92L208.96-16.92zM203.98-8.50L203.98-8.50L203.98-8.50Q203.98-9.16 203.91-9.89L203.91-9.89L203.91-9.89Q203.85-10.62 203.69-11.34L203.69-11.34L203.69-11.34Q203.53-12.06 203.24-12.71L203.24-12.71L203.24-12.71Q202.95-13.36 202.51-13.86L202.51-13.86L202.51-13.86Q202.06-14.37 201.43-14.66L201.43-14.66L201.43-14.66Q200.80-14.96 199.97-14.96L199.97-14.96L199.97-14.96Q199.13-14.96 198.52-14.66L198.52-14.66L198.52-14.66Q197.90-14.36 197.46-13.85L197.46-13.85L197.46-13.85Q197.02-13.34 196.74-12.69L196.74-12.69L196.74-12.69Q196.45-12.03 196.29-11.31L196.29-11.31L196.29-11.31Q196.13-10.59 196.06-9.87L196.06-9.87L196.06-9.87Q196.00-9.14 196.00-8.50L196.00-8.50L196.00-8.50Q196.00-7.85 196.06-7.12L196.06-7.12L196.06-7.12Q196.13-6.39 196.29-5.67L196.29-5.67L196.29-5.67Q196.45-4.95 196.74-4.29L196.74-4.29L196.74-4.29Q197.02-3.63 197.46-3.13L197.46-3.13L197.46-3.13Q197.90-2.62 198.52-2.32L198.52-2.32L198.52-2.32Q199.13-2.02 199.97-2.02L199.97-2.02L199.97-2.02Q200.73-2.02 201.32-2.34L201.32-2.34L201.32-2.34Q201.91-2.65 202.36-3.18L202.36-3.18L202.36-3.18Q202.81-3.71 203.12-4.38L203.12-4.38L203.12-4.38Q203.42-5.05 203.61-5.77L203.61-5.77L203.61-5.77Q203.80-6.49 203.89-7.20L203.89-7.20L203.89-7.20Q203.98-7.91 203.98-8.50" fill="#31395a" stroke="none" stroke-width="none" transform="translate(-161.66500854492188,9.166736358642583)" style="fill: rgb(49, 57, 90);"></path></g><g class="path" style="transform: scale(1); transform-origin: 58.17px 0.671737px; animation: 1s linear -0.198s infinite normal forwards running beat-b9ae96a5-ac47-415a-b840-631c5882e13f;"><path d="M227.65-5.41L227.65-5.41L227.65-5.41Q227.65-4.29 227.33-3.43L227.33-3.43L227.33-3.43Q227.01-2.56 226.45-1.93L226.45-1.93L226.45-1.93Q225.89-1.29 225.13-0.86L225.13-0.86L225.13-0.86Q224.37-0.42 223.50-0.16L223.50-0.16L223.50-0.16Q222.63 0.10 221.67 0.22L221.67 0.22L221.67 0.22Q220.72 0.34 219.79 0.34L219.79 0.34L219.79 0.34Q218.53 0.34 217.56 0.18L217.56 0.18L217.56 0.18Q216.59 0.01 215.71-0.34L215.71-0.34L215.71-0.34Q214.83-0.70 213.96-1.27L213.96-1.27L213.96-1.27Q213.09-1.85 212.02-2.67L212.02-2.67L214.91-5.02L214.91-5.02Q215.30-4.28 215.95-3.67L215.95-3.67L215.95-3.67Q216.61-3.06 217.31-2.62L217.31-2.62L217.31-2.62Q218.01-2.18 218.67-1.95L218.67-1.95L218.67-1.95Q219.33-1.71 219.74-1.71L219.74-1.71L219.74-1.71Q220.08-1.71 220.50-1.74L220.50-1.74L220.50-1.74Q220.93-1.76 221.37-1.82L221.37-1.82L221.37-1.82Q221.81-1.89 222.23-2.02L222.23-2.02L222.23-2.02Q222.66-2.15 222.99-2.38L222.99-2.38L222.99-2.38Q223.32-2.61 223.51-2.95L223.51-2.95L223.51-2.95Q223.71-3.30 223.71-3.78L223.71-3.78L223.71-3.78Q223.71-4.28 223.45-4.65L223.45-4.65L223.45-4.65Q223.20-5.02 222.79-5.30L222.79-5.30L222.79-5.30Q222.38-5.58 221.85-5.77L221.85-5.77L221.85-5.77Q221.32-5.96 220.79-6.11L220.79-6.11L220.79-6.11Q220.25-6.25 219.76-6.36L219.76-6.36L219.76-6.36Q219.26-6.47 218.89-6.58L218.89-6.58L218.89-6.58Q218.22-6.77 217.47-6.97L217.47-6.97L217.47-6.97Q216.72-7.16 215.99-7.42L215.99-7.42L215.99-7.42Q215.26-7.68 214.59-8.03L214.59-8.03L214.59-8.03Q213.93-8.38 213.42-8.87L213.42-8.87L213.42-8.87Q212.92-9.36 212.61-10.03L212.61-10.03L212.61-10.03Q212.31-10.69 212.31-11.59L212.31-11.59L212.31-11.59Q212.31-13.23 212.97-14.33L212.97-14.33L212.97-14.33Q213.62-15.44 214.69-16.11L214.69-16.11L214.69-16.11Q215.76-16.77 217.12-17.05L217.12-17.05L217.12-17.05Q218.48-17.33 219.89-17.33L219.89-17.33L219.89-17.33Q220.85-17.33 221.92-17.13L221.92-17.13L221.92-17.13Q222.99-16.93 224.00-16.55L224.00-16.55L224.00-16.55Q225.01-16.16 225.89-15.60L225.89-15.60L225.89-15.60Q226.77-15.04 227.36-14.33L227.36-14.33L224.47-11.95L224.47-11.95Q224.15-12.83 223.63-13.46L223.63-13.46L223.63-13.46Q223.11-14.09 222.50-14.49L222.50-14.49L222.50-14.49Q221.89-14.90 221.26-15.09L221.26-15.09L221.26-15.09Q220.62-15.28 220.08-15.28L220.08-15.28L220.08-15.28Q219.55-15.28 218.89-15.23L218.89-15.23L218.89-15.23Q218.23-15.19 217.65-14.99L217.65-14.99L217.65-14.99Q217.08-14.78 216.67-14.36L216.67-14.36L216.67-14.36Q216.27-13.95 216.27-13.21L216.27-13.21L216.27-13.21Q216.27-12.69 216.51-12.31L216.51-12.31L216.51-12.31Q216.75-11.94 217.15-11.67L217.15-11.67L217.15-11.67Q217.54-11.40 218.05-11.21L218.05-11.21L218.05-11.21Q218.55-11.03 219.08-10.89L219.08-10.89L219.08-10.89Q219.61-10.75 220.11-10.65L220.11-10.65L220.11-10.65Q220.61-10.55 221.00-10.43L221.00-10.43L221.00-10.43Q221.67-10.24 222.43-10.04L222.43-10.04L222.43-10.04Q223.18-9.84 223.92-9.59L223.92-9.59L223.92-9.59Q224.65-9.33 225.33-8.99L225.33-8.99L225.33-8.99Q226.01-8.64 226.52-8.14L226.52-8.14L226.52-8.14Q227.04-7.65 227.34-6.98L227.34-6.98L227.34-6.98Q227.65-6.31 227.65-5.41" fill="#31395a" stroke="none" stroke-width="none" transform="translate(-161.66500854492188,9.166736358642583)" style="fill: rgb(29, 32, 49);"></path></g><g class="path" style="transform: scale(1); transform-origin: 76.755px 0.671737px; animation: 1s linear -0.165s infinite normal forwards running beat-b9ae96a5-ac47-415a-b840-631c5882e13f;"><path d="M234.84-8.03L234.84-8.03L234.84-8.03Q235.75-7.82 236.66-7.71L236.66-7.71L236.66-7.71Q237.57-7.59 238.49-7.59L238.49-7.59L238.49-7.59Q239.46-7.59 240.29-7.77L240.29-7.77L240.29-7.77Q241.11-7.95 241.72-8.39L241.72-8.39L241.72-8.39Q242.33-8.82 242.68-9.54L242.68-9.54L242.68-9.54Q243.03-10.25 243.03-11.32L243.03-11.32L243.03-11.32Q243.03-12.19 242.80-12.91L242.80-12.91L242.80-12.91Q242.56-13.62 242.10-14.14L242.10-14.14L242.10-14.14Q241.64-14.65 240.97-14.93L240.97-14.93L240.97-14.93Q240.29-15.22 239.40-15.22L239.40-15.22L239.40-15.22Q238.56-15.22 237.90-14.91L237.90-14.91L237.90-14.91Q237.23-14.60 236.73-14.08L236.73-14.08L236.73-14.08Q236.22-13.56 235.86-12.88L235.86-12.88L235.86-12.88Q235.50-12.19 235.27-11.44L235.27-11.44L235.27-11.44Q235.03-10.69 234.93-9.93L234.93-9.93L234.93-9.93Q234.83-9.17 234.83-8.50L234.83-8.50L234.83-8.50Q234.83-8.38 234.83-8.26L234.83-8.26L234.83-8.26Q234.83-8.14 234.84-8.03zM247.05-11.37L247.05-11.37L247.05-11.37Q247.05-10.33 246.71-9.51L246.71-9.51L246.71-9.51Q246.37-8.70 245.79-8.09L245.79-8.09L245.79-8.09Q245.21-7.47 244.45-7.05L244.45-7.05L244.45-7.05Q243.69-6.62 242.83-6.35L242.83-6.35L242.83-6.35Q241.96-6.08 241.05-5.96L241.05-5.96L241.05-5.96Q240.13-5.84 239.27-5.84L239.27-5.84L239.27-5.84Q238.17-5.84 237.10-6.00L237.10-6.00L237.10-6.00Q236.03-6.15 234.99-6.49L234.99-6.49L234.99-6.49Q235.15-5.52 235.50-4.65L235.50-4.65L235.50-4.65Q235.85-3.78 236.44-3.13L236.44-3.13L236.44-3.13Q237.03-2.48 237.88-2.09L237.88-2.09L237.88-2.09Q238.74-1.71 239.91-1.71L239.91-1.71L239.91-1.71Q240.69-1.71 241.39-1.95L241.39-1.95L241.39-1.95Q242.09-2.18 242.68-2.61L242.68-2.61L242.68-2.61Q243.27-3.03 243.71-3.62L243.71-3.62L243.71-3.62Q244.16-4.20 244.44-4.92L244.44-4.92L246.58-4.13L246.58-4.13Q246.09-2.97 245.25-2.13L245.25-2.13L245.25-2.13Q244.41-1.29 243.35-0.74L243.35-0.74L243.35-0.74Q242.29-0.19 241.09 0.07L241.09 0.07L241.09 0.07Q239.90 0.34 238.73 0.34L238.73 0.34L238.73 0.34Q236.79 0.34 235.15-0.31L235.15-0.31L235.15-0.31Q233.51-0.97 232.32-2.14L232.32-2.14L232.32-2.14Q231.14-3.31 230.46-4.94L230.46-4.94L230.46-4.94Q229.79-6.56 229.79-8.50L229.79-8.50L229.79-8.50Q229.79-10.43 230.46-12.06L230.46-12.06L230.46-12.06Q231.14-13.68 232.32-14.85L232.32-14.85L232.32-14.85Q233.51-16.03 235.15-16.68L235.15-16.68L235.15-16.68Q236.79-17.33 238.73-17.33L238.73-17.33L238.73-17.33Q239.66-17.33 240.64-17.20L240.64-17.20L240.64-17.20Q241.63-17.07 242.55-16.78L242.55-16.78L242.55-16.78Q243.47-16.49 244.29-16.04L244.29-16.04L244.29-16.04Q245.11-15.59 245.72-14.92L245.72-14.92L245.72-14.92Q246.33-14.25 246.69-13.37L246.69-13.37L246.69-13.37Q247.05-12.50 247.05-11.37" fill="#31395a" stroke="none" stroke-width="none" transform="translate(-161.66500854492188,9.166736358642583)" style="fill: rgb(92, 96, 126);"></path></g><g class="path" style="transform: scale(1); transform-origin: 107.63px 0.706737px; animation: 1s linear -0.132s infinite normal forwards running beat-b9ae96a5-ac47-415a-b840-631c5882e13f;"><path d="M269.19-10.28L266.40 0L261.94 0L257.31-16.92L262.27-16.92L265.17-5.05L267.58-16.92L272.04-16.92L275.00-4.73L277.85-16.92L281.28-16.92L276.15 0L271.70 0L269.19-10.28" fill="#31395a" stroke="none" stroke-width="none" transform="translate(-161.66500854492188,9.166736358642583)" style="fill: rgb(168, 164, 185);"></path></g><g class="path" style="transform: scale(1); transform-origin: 129.985px 0.671737px; animation: 1s linear -0.099s infinite normal forwards running beat-b9ae96a5-ac47-415a-b840-631c5882e13f;"><path d="M300.64-16.92L300.64 0L295.69 0L295.69-2.02L295.69-2.02Q294.81-0.82 293.58-0.24L293.58-0.24L293.58-0.24Q292.34 0.34 290.86 0.34L290.86 0.34L290.86 0.34Q288.93 0.34 287.40-0.35L287.40-0.35L287.40-0.35Q285.88-1.04 284.82-2.23L284.82-2.23L284.82-2.23Q283.77-3.43 283.21-5.04L283.21-5.04L283.21-5.04Q282.66-6.65 282.66-8.50L282.66-8.50L282.66-8.50Q282.66-10.34 283.21-11.95L283.21-11.95L283.21-11.95Q283.77-13.56 284.82-14.76L284.82-14.76L284.82-14.76Q285.88-15.95 287.40-16.64L287.40-16.64L287.40-16.64Q288.93-17.33 290.86-17.33L290.86-17.33L290.86-17.33Q291.84-17.33 292.73-17.04L292.73-17.04L292.73-17.04Q293.61-16.74 294.35-16.21L294.35-16.21L294.35-16.21Q295.09-15.67 295.66-14.92L295.66-14.92L295.66-14.92Q296.22-14.17 296.54-13.24L296.54-13.24L298.74-16.92L300.64-16.92zM295.66-8.50L295.66-8.50L295.66-8.50Q295.66-9.16 295.60-9.89L295.60-9.89L295.60-9.89Q295.53-10.62 295.37-11.34L295.37-11.34L295.37-11.34Q295.21-12.06 294.92-12.71L294.92-12.71L294.92-12.71Q294.64-13.36 294.19-13.86L294.19-13.86L294.19-13.86Q293.75-14.37 293.12-14.66L293.12-14.66L293.12-14.66Q292.49-14.96 291.65-14.96L291.65-14.96L291.65-14.96Q290.82-14.96 290.20-14.66L290.20-14.66L290.20-14.66Q289.58-14.36 289.15-13.85L289.15-13.85L289.15-13.85Q288.71-13.34 288.42-12.69L288.42-12.69L288.42-12.69Q288.13-12.03 287.97-11.31L287.97-11.31L287.97-11.31Q287.81-10.59 287.75-9.87L287.75-9.87L287.75-9.87Q287.68-9.14 287.68-8.50L287.68-8.50L287.68-8.50Q287.68-7.85 287.75-7.12L287.75-7.12L287.75-7.12Q287.81-6.39 287.97-5.67L287.97-5.67L287.97-5.67Q288.13-4.95 288.42-4.29L288.42-4.29L288.42-4.29Q288.71-3.63 289.15-3.13L289.15-3.13L289.15-3.13Q289.58-2.62 290.20-2.32L290.20-2.32L290.20-2.32Q290.82-2.02 291.65-2.02L291.65-2.02L291.65-2.02Q292.41-2.02 293.01-2.34L293.01-2.34L293.01-2.34Q293.60-2.65 294.05-3.18L294.05-3.18L294.05-3.18Q294.49-3.71 294.80-4.38L294.80-4.38L294.80-4.38Q295.11-5.05 295.30-5.77L295.30-5.77L295.30-5.77Q295.49-6.49 295.58-7.20L295.58-7.20L295.58-7.20Q295.66-7.91 295.66-8.50" fill="#31395a" stroke="none" stroke-width="none" transform="translate(-161.66500854492188,9.166736358642583)" style="fill: rgb(201, 197, 213);"></path></g><g class="path" style="transform: scale(1); transform-origin: 145.61px -11.8333px; animation: 1s linear -0.066s infinite normal forwards running beat-b9ae96a5-ac47-415a-b840-631c5882e13f;"><path d="M309.98-21.01L309.98-21.01L309.98-21.01Q309.98-20.45 309.76-19.95L309.76-19.95L309.76-19.95Q309.55-19.45 309.18-19.09L309.18-19.09L309.18-19.09Q308.82-18.72 308.32-18.51L308.32-18.51L308.32-18.51Q307.82-18.30 307.27-18.30L307.27-18.30L307.27-18.30Q306.71-18.30 306.22-18.51L306.22-18.51L306.22-18.51Q305.73-18.72 305.36-19.09L305.36-19.09L305.36-19.09Q305.00-19.45 304.78-19.95L304.78-19.95L304.78-19.95Q304.57-20.45 304.57-21.01L304.57-21.01L304.57-21.01Q304.57-21.56 304.78-22.05L304.78-22.05L304.78-22.05Q305.00-22.54 305.36-22.91L305.36-22.91L305.36-22.91Q305.73-23.28 306.22-23.49L306.22-23.49L306.22-23.49Q306.71-23.70 307.27-23.70L307.27-23.70L307.27-23.70Q307.82-23.70 308.32-23.49L308.32-23.49L308.32-23.49Q308.82-23.28 309.18-22.91L309.18-22.91L309.18-22.91Q309.55-22.54 309.76-22.05L309.76-22.05L309.76-22.05Q309.98-21.56 309.98-21.01" fill="#31395a" stroke="none" stroke-width="none" transform="translate(-161.66500854492188,9.166736358642583)" style="fill: rgb(12, 11, 13);"></path></g><g class="path" style="transform: scale(1); transform-origin: 145.61px 0.716737px; animation: 1s linear -0.033s infinite normal forwards running beat-b9ae96a5-ac47-415a-b840-631c5882e13f;"><path d="M309.76-16.90L309.76 0L304.79 0L304.79-16.90L309.76-16.90" fill="#31395a" stroke="none" stroke-width="none" transform="translate(-161.66500854492188,9.166736358642583)" style="fill: rgb(49, 57, 90);"></path></g><g class="path" style="transform: scale(1); transform-origin: 157.15px -2.40326px; animation: 1s linear 0s infinite normal forwards running beat-b9ae96a5-ac47-415a-b840-631c5882e13f;"><path d="M320.27-14.96L320.27 0L315.31 0L315.31-14.96L312.23-14.96L312.23-16.92L315.31-16.92L315.31-23.14L320.27-23.14L320.27-16.92L325.40-16.92L325.40-14.96L320.27-14.96" fill="#31395a" stroke="none" stroke-width="none" transform="translate(-161.66500854492188,9.166736358642583)" style="fill: rgb(29, 32, 49);"></path></g></g>
</g>
</g>
<style id="beat-b9ae96a5-ac47-415a-b840-631c5882e13f" data-anikit="">@keyframes beat-b9ae96a5-ac47-415a-b840-631c5882e13f
{
  0% {
    animation-timing-function: cubic-bezier(0.1028,0.2484,0.1372,0.849);
    transform: scale(1);
  }
  34% {
    animation-timing-function: cubic-bezier(0.7116,0.2095,0.8159,0.6876);
    transform: scale(1.2);
  }
  68% {
    animation-timing-function: cubic-bezier(0.1475,0.2888,0.294,0.883);
    transform: scale(1.0268);
  }
  84% {
    animation-timing-function: cubic-bezier(0.8176,0.2193,0.867,0.6889);
    transform: scale(1.0932);
  }
  100% {
    transform: scale(1);
  }
}</style></svg>